# xmcd CD database file
#
# Track frame offsets:
#	150
#	14725
#	25597
#	37965
#	49277
#	61397
#	75012
#	88872
#	99615
#	110280
#	123515
#	138305
#	149020
#	164430
#	177310
#	190332
#
# Disc length: 2727 seconds
#
# Revision: 1
# Processed by: cddbd v1.5.1PL2 Copyright (c) Steve Scherf et al.
# Submitted via: CDex 1.51
#
DISCID=d90aa510
DTITLE=Kenny Rogers - 16 Great Hits
DYEAR=1994
DGENRE=Country
TTITLE0=Sunshine
TTITLE1=Goodtime Liberator
TTITLE2=Reuben James
TTITLE3=Always Leaving, Always Gone
TTITLE4=Elvira
TTITLE5=Shine On Ruby Mountain
TTITLE6=Looser
TTITLE7=Homemade Pie
TTITLE8=Ticket To Nowhere
TTITLE9=Ruby Don't Take Your Love To Town
TTITLE10=Conditions (Just Dropped In)
TTITLE11=She Even Woke Me Up To Say Goodbye
TTITLE12=My Washington Woman
TTITLE13=Run Thru Your Mind
TTITLE14=Sleep Comes Easy
TTITLE15=After All (I Live My Life)
EXTD=YEAR: 1994
EXTT0=
EXTT1=
EXTT2=
EXTT3=
EXTT4=
EXTT5=
EXTT6=
EXTT7=
EXTT8=
EXTT9=
EXTT10=
EXTT11=
EXTT12=
EXTT13=
EXTT14=
EXTT15=
PLAYORDER=
